<?xml version="1.0" encoding="UTF-8"?>
<svg width="329px" height="115px" viewBox="0 0 329 115" version="1.1" xmlns="http://www.w3.org/2000/svg" xmlns:xlink="http://www.w3.org/1999/xlink">
    <title>biodiv-logo copy</title>
    <defs>
        <linearGradient x1="49.9938057%" y1="108.501568%" x2="49.9938057%" y2="4.37984781%" id="linearGradient-1">
            <stop stop-color="#FFFFFF" offset="0%"></stop>
            <stop stop-color="#F8F8F8" offset="0%"></stop>
            <stop stop-color="#F3F3F3" offset="0%"></stop>
            <stop stop-color="#E6E5E2" offset="12%"></stop>
            <stop stop-color="#C5C1B5" offset="36%"></stop>
            <stop stop-color="#8F876E" offset="69%"></stop>
            <stop stop-color="#584C24" offset="100%"></stop>
        </linearGradient>
    </defs>
    <g id="Startseite-Copy" stroke="none" stroke-width="1" fill="none" fill-rule="evenodd">
        <g id="01-biodiv-home" transform="translate(-116.000000, -40.000000)">
            <g id="Group-13" transform="translate(116.000000, 24.000000)">
                <g id="biodiv-logo" transform="translate(0.000000, 16.000000)">
                    <path d="M328.957821,42.0497967 C328.957821,94.599187 173.099929,90.0038618 173.099929,90.0038618 C169.749003,81.6453252 166.843305,67.3404472 165.690399,54.325813 C162.845627,22.1538618 190.590356,1.32865715e-14 254.759416,1.32865715e-14 C302.642507,1.32865715e-14 328.976567,11.9815041 328.976567,42.0731707" id="Path" fill="#004A97" fill-rule="nonzero" opacity="0.11"></path>
                    <path d="M192.530613,56.7941057 C193.201198,58.9152401 193.584212,61.1163447 193.669459,63.3388211 L194.349017,63.3388211 C194.349017,63.3388211 193.81943,57.5514228 192.530613,56.7941057 Z" id="Path" fill="#95BD11" fill-rule="nonzero"></path>
                    <path d="M192.568105,51.9977642 C194.000765,55.6299964 194.836351,59.4690565 195.042635,63.3668699 L195.872165,63.3668699 C195.872165,63.3668699 195.487863,54.8680894 192.568105,51.9977642 Z" id="Path" fill="#2F862D" fill-rule="nonzero"></path>
                    <path d="M194.494302,53.199187 C196.332795,56.2758317 197.356874,59.7682293 197.470299,63.3481707 L198.299829,63.3481707 C198.299829,63.3481707 198.145171,57.2522358 194.494302,53.199187 Z" id="Path" fill="#2F862D" fill-rule="nonzero"></path>
                    <path d="M199.771425,53.4609756 C198.025037,56.4831909 197.001777,59.866797 196.781368,63.3481707 L196.115869,63.3481707 C196.115869,63.3481707 195.862792,57.3176829 199.771425,53.4609756 Z" id="Path" fill="#95BD11" fill-rule="nonzero"></path>
                    <path d="M168.685142,56.7941057 C169.358379,58.9145959 169.741456,61.1160601 169.823989,63.3388211 L170.503547,63.3388211 C170.503547,63.3388211 169.97396,57.5514228 168.685142,56.7941057 Z" id="Path" fill="#2F862D" fill-rule="nonzero"></path>
                    <path d="M172.575028,57.7945122 C172.575028,57.7945122 171.862664,59.6924797 171.736125,63.3481707 L171.056567,63.3481707 C171.056567,63.3481707 171.286211,58.5424797 172.575028,57.7945122 Z" id="Path" fill="#2F862D" fill-rule="nonzero"></path>
                    <path d="M174.037251,57.5046748 C173.308042,59.368232 172.922235,61.3478335 172.898405,63.3481707 L172.218846,63.3481707 C172.218846,63.3481707 172.771866,58.2619919 174.037251,57.5046748 Z" id="Path" fill="#2F862D" fill-rule="nonzero"></path>
                    <path d="M170.437934,57.7571138 C170.437934,57.7571138 169.20067,59.6924797 169.069444,63.3668699 L168.413319,63.3668699 C168.413319,63.3668699 169.149117,58.5144309 170.437934,57.7571138 Z" id="Path" fill="#2F862D" fill-rule="nonzero"></path>
                    <path d="M175.911895,56.7941057 C175.241309,58.9152401 174.858295,61.1163447 174.773048,63.3388211 L174.09349,63.3388211 C174.09349,63.3388211 174.623077,57.5514228 175.911895,56.7941057 Z" id="Path" fill="#2F862D" fill-rule="nonzero"></path>
                    <path d="M168.549231,57.4953252 C167.960144,59.392071 167.644542,61.3627587 167.611909,63.3481707 L166.93235,63.3481707 C166.93235,63.3481707 167.260413,58.2526423 168.549231,57.4953252 Z" id="Path" fill="#2F862D" fill-rule="nonzero"></path>
                    <path d="M223.949644,57.5560976 C223.949644,57.5560976 224.957265,59.6924797 225.08849,63.3481707 L225.768048,63.3481707 C225.768048,63.3481707 225.238462,58.3134146 223.949644,57.5560976 Z" id="Path" fill="#2F862D" fill-rule="nonzero"></path>
                    <path d="M225.121296,56.7941057 C225.791882,58.9152401 226.174896,61.1163447 226.260142,63.3388211 L226.939701,63.3388211 C226.939701,63.3388211 226.424174,57.5514228 225.121296,56.7941057 Z" id="Path" fill="#2F862D" fill-rule="nonzero"></path>
                    <path d="M226.564772,58.2853659 C227.230142,59.8961256 227.615277,61.6082655 227.703618,63.3481707 L228.401923,63.3481707 C228.401923,63.3481707 227.85359,58.8743902 226.564772,58.2853659 Z" id="Path" fill="#2F862D" fill-rule="nonzero"></path>
                    <path d="M183.340171,57.453252 C184.067224,59.3353176 184.452846,61.3313827 184.479017,63.3481707 L185.158575,63.3481707 C185.158575,63.3481707 184.989858,58.5705285 183.340171,57.453252 Z" id="Path" fill="#2F862D" fill-rule="nonzero"></path>
                    <path d="M185.350726,57.9067073 C185.350726,57.9067073 186.030285,59.6924797 186.16151,63.3481707 L186.841068,63.3481707 C186.841068,63.3481707 186.634858,58.6640244 185.350726,57.9067073 Z" id="Path" fill="#2F862D" fill-rule="nonzero"></path>
                    <path d="M187.590926,57.0512195 C188.703582,58.9710947 189.330906,61.1323137 189.418704,63.3481707 L190.098262,63.3481707 C190.098262,63.3481707 189.803006,58.7294715 187.590926,57.0512195 Z" id="Path" fill="#2F862D" fill-rule="nonzero"></path>
                    <path d="M189.803006,56.7941057 C189.129769,58.9145959 188.746692,61.1160601 188.66416,63.3388211 L187.984601,63.3388211 C187.984601,63.3388211 188.514188,57.5514228 189.803006,56.7941057 Z" id="Path" fill="#2F862D" fill-rule="nonzero"></path>
                    <path d="M188.026781,58.2573171 C188.026781,58.2573171 187.014473,59.6924797 186.887934,63.3481707 L186.222436,63.3481707 C186.222436,63.3481707 186.737963,59.0099593 188.026781,58.2573171 Z" id="Path" fill="#2F862D" fill-rule="nonzero"></path>
                    <path d="M190.716895,56.7941057 C191.38748,58.9152401 191.770494,61.1163447 191.855741,63.3388211 L192.535299,63.3388211 C192.535299,63.3388211 192.005712,57.5514228 190.716895,56.7941057 Z" id="Path" fill="#2F862D" fill-rule="nonzero"></path>
                    <path d="M192.614972,58.3087398 C192.614972,58.3087398 191.208989,59.7111789 191.09651,63.3481707 L190.440385,63.3481707 C190.440385,63.3481707 190.58567,59.0660569 192.614972,58.3087398 Z" id="Path" fill="#2F862D" fill-rule="nonzero"></path>
                    <path d="M198.946581,56.878252 C198.946581,56.878252 200.352564,58.6546748 200.460356,63.3481707 L201.139915,63.3481707 C201.139915,63.3481707 200.975883,57.8506098 198.946581,56.878252 Z" id="Path" fill="#2F862D" fill-rule="nonzero"></path>
                    <path d="M174.548091,57.1400407 C175.474706,59.0781358 175.985507,61.187837 176.047806,63.3341463 L176.727365,63.3341463 C176.727365,63.3341463 175.836909,57.9113821 174.548091,57.1400407 Z" id="Path" fill="#2F862D" fill-rule="nonzero"></path>
                    <path d="M195.914345,51.9416667 C195.914345,51.9416667 198.543533,55.9479675 198.805983,63.3481707 L199.55584,63.3481707 C199.55584,63.3481707 199.869843,56.4341463 195.914345,51.9416667 Z" id="Path" fill="#2F862D" fill-rule="nonzero"></path>
                    <path d="M220.345641,53.199187 C218.505505,56.2753891 217.479804,59.7678147 217.364957,63.3481707 L216.535427,63.3481707 C216.535427,63.3481707 216.685399,57.2522358 220.345641,53.199187 Z" id="Path" fill="#2F862D" fill-rule="nonzero"></path>
                    <path d="M216.58698,53.4609756 C218.336102,56.482316 219.361052,59.8662072 219.581724,63.3481707 L220.247222,63.3481707 C220.247222,63.3481707 220.500299,57.3176829 216.58698,53.4609756 Z" id="Path" fill="#95BD11" fill-rule="nonzero"></path>
                    <path d="M217.655527,56.878252 C217.655527,56.878252 215.237236,58.6546748 215.040399,63.3481707 L214.309288,63.3481707 C214.309288,63.3481707 214.562365,57.8506098 217.655527,56.878252 Z" id="Path" fill="#2F862D" fill-rule="nonzero"></path>
                    <path d="M201.763234,45.4530488 C202.707429,51.3708287 203.233625,57.3474682 203.337934,63.3388211 L204.275256,63.3388211 C204.275256,63.3388211 203.562892,47.5333333 201.763234,45.4530488 Z" id="Path" fill="#95BD11" fill-rule="nonzero"></path>
                    <path d="M225.66963,56.7941057 C224.999044,58.9152401 224.61603,61.1163447 224.530783,63.3388211 L223.851225,63.3388211 C223.851225,63.3388211 224.380812,57.5514228 225.66963,56.7941057 Z" id="Path" fill="#95BD11" fill-rule="nonzero"></path>
                    <path d="M225.632137,51.9977642 C224.201984,55.6307537 223.366487,59.469404 223.157607,63.3668699 L222.30933,63.3668699 C222.30933,63.3668699 222.717066,54.8680894 225.632137,51.9977642 Z" id="Path" fill="#2F862D" fill-rule="nonzero"></path>
                    <path d="M223.715313,53.199187 C221.875177,56.2753891 220.849477,59.7678147 220.73463,63.3481707 L219.9051,63.3481707 C219.9051,63.3481707 220.055071,57.2522358 223.715313,53.199187 Z" id="Path" fill="#2F862D" fill-rule="nonzero"></path>
                    <path d="M218.424131,50.6747967 C220.160128,54.6912601 221.173841,58.9811637 221.418875,63.3481707 L222.084373,63.3481707 C222.084373,63.3481707 222.33745,55.3963415 218.424131,50.6747967 Z" id="Path" fill="#95BD11" fill-rule="nonzero"></path>
                    <path d="M215.846496,48.0849593 C215.846496,48.0849593 213.812507,53.3721545 213.596923,63.3481707 L212.46745,63.3481707 C212.46745,63.3481707 213.732835,50.1558943 215.846496,48.0849593 Z" id="Path" fill="#2F862D" fill-rule="nonzero"></path>
                    <path d="M176.094672,56.7941057 C176.765258,58.9152401 177.148272,61.1163447 177.233519,63.3388211 L177.913077,63.3388211 C177.913077,63.3388211 177.378803,57.5514228 176.094672,56.7941057 Z" id="Path" fill="#2F862D" fill-rule="nonzero"></path>
                    <path d="M179.351866,56.7941057 C180.022451,58.9152401 180.405466,61.1163447 180.490712,63.3388211 L181.170271,63.3388211 C181.170271,63.3388211 180.635997,57.5514228 179.351866,56.7941057 Z" id="Path" fill="#2F862D" fill-rule="nonzero"></path>
                    <path d="M183.232379,58.075 C183.232379,58.075 182.224758,59.7111789 182.093533,63.3668699 L181.413974,63.3668699 C181.413974,63.3668699 181.948248,58.8136179 183.232379,58.075 Z" id="Path" fill="#2F862D" fill-rule="nonzero"></path>
                    <path d="M184.722721,56.7941057 C184.052135,58.9152401 183.669121,61.1163447 183.583875,63.3388211 L182.904316,63.3388211 C182.904316,63.3388211 183.433903,57.5514228 184.722721,56.7941057 Z" id="Path" fill="#2F862D" fill-rule="nonzero"></path>
                    <path d="M204.654872,55.1953252 C204.654872,55.1953252 205.971809,57.6449187 206.098348,63.3481707 L206.777906,63.3481707 C206.777906,63.3481707 206.304558,56.9343496 204.654872,55.1953252 Z" id="Path" fill="#95BD11" fill-rule="nonzero"></path>
                    <path d="M209.678917,53.5310976 C210.831074,56.6793459 211.448806,59.9972134 211.506695,63.3481707 L212.186254,63.3481707 C212.186254,63.3481707 211.890997,56.1443089 209.678917,53.5310976 Z" id="Path" fill="#95BD11" fill-rule="nonzero"></path>
                    <path d="M212.500256,53.129065 C211.817925,56.4950601 211.436811,59.9148781 211.36141,63.3481707 L210.681852,63.3481707 C210.681852,63.3481707 211.211439,54.3351626 212.500256,53.129065 Z" id="Path" fill="#95BD11" fill-rule="nonzero"></path>
                    <path d="M206.913818,55.4103659 C206.913818,55.4103659 207.921439,57.6449187 208.052664,63.3575203 L208.718162,63.3575203 C208.718162,63.3575203 208.202635,56.5930894 206.913818,55.4103659 Z" id="Path" fill="#95BD11" fill-rule="nonzero"></path>
                    <path d="M207.312179,53.4235772 C207.312179,53.4235772 205.231325,56.1349593 205.231325,63.3481707 L204.551765,63.3481707 C204.551765,63.3481707 204.537707,55.8357724 207.312179,53.4235772 Z" id="Path" fill="#95BD11" fill-rule="nonzero"></path>
                    <path d="M180.879701,57.6075203 C180.879701,57.6075203 179.862707,59.6831301 179.736168,63.3388211 L179.05661,63.3388211 C179.05661,63.3388211 179.590883,58.374187 180.879701,57.6075203 Z" id="Path" fill="#2F862D" fill-rule="nonzero"></path>
                    <path d="M179.094103,58.2573171 C179.094103,58.2573171 178.086481,59.6924797 177.955256,63.3481707 L177.275698,63.3481707 C177.275698,63.3481707 177.809972,59.0099593 179.094103,58.2573171 Z" id="Path" fill="#2F862D" fill-rule="nonzero"></path>
                    <path d="M205.250071,48.6693089 C205.250071,48.6693089 202.644316,54.1060976 202.484972,63.3481707 L201.655442,63.3481707 C201.655442,63.3481707 201.852279,52.6335366 205.250071,48.6693089 Z" id="Path" fill="#2F862D" fill-rule="nonzero"></path>
                    <path d="M207.312179,45.7943089 L208.108903,55.270122 C208.296682,57.9573007 208.246497,60.6557633 207.958932,63.3341463 L208.329174,63.3762195 C208.619823,60.6730474 208.671575,57.9496153 208.483832,55.2373984 L207.668362,45.770935 L207.312179,45.7943089 Z" id="Path" fill="#2F862D" fill-rule="nonzero"></path>
                    <path d="M208.319801,63.1565041 C209.499629,62.9215986 210.522743,62.1953181 211.131766,61.1603659 C212.256553,59.3699187 211.923803,57.9581301 211.923803,57.9581301 C211.923803,57.9581301 210.83651,58.1871951 209.48208,59.8 C208.681751,60.7312181 208.26626,61.9310995 208.319801,63.1565041 L208.319801,63.1565041 Z" id="Path" fill="#2F862D" fill-rule="nonzero"></path>
                    <path d="M208.169829,63.1565041 C206.99,62.9215986 205.966887,62.1953181 205.357863,61.1603659 C204.233077,59.3699187 204.565826,57.9581301 204.565826,57.9581301 C204.565826,57.9581301 205.65312,58.1871951 207.00755,59.8 C207.807879,60.7312181 208.22337,61.9310995 208.169829,63.1565041 L208.169829,63.1565041 Z" id="Path" fill="#2F862D" fill-rule="nonzero"></path>
                    <path d="M207.598063,44.7050813 C206.768533,44.920122 205.981182,44.6443089 205.835897,44.0926829 C205.690613,43.5410569 206.243632,42.9239837 207.073162,42.6902439 C207.902692,42.4565041 208.685356,42.7510163 208.830641,43.3026423 C208.975926,43.8542683 208.422906,44.5180894 207.598063,44.7050813 Z" id="Path" fill="#E75E13" fill-rule="nonzero"></path>
                    <path d="M207.626182,46.7900407 C207.157521,46.9162602 206.68886,46.7526423 206.585755,46.4254065 C206.48265,46.0981707 206.824772,45.7288618 207.316866,45.6073171 C207.80896,45.4857724 208.254188,45.6400407 208.36198,45.9672764 C208.469772,46.2945122 208.118276,46.6638211 207.626182,46.7900407 Z" id="Path" fill="#E75E13" fill-rule="nonzero"></path>
                    <path d="M209.552379,45.3455285 C209.327422,46.1262195 208.66661,46.6264228 208.080783,46.4581301 C207.494957,46.2898374 207.199701,45.5231707 207.429345,44.7424797 C207.658989,43.9617886 208.310427,43.4662602 208.896254,43.629878 C209.48208,43.7934959 209.777336,44.5648374 209.552379,45.3455285 Z" id="Path" fill="#E75E13" fill-rule="nonzero"></path>
                    <path d="M207.335613,44.5180894 C207.85114,45.1538618 207.879259,45.9719512 207.401225,46.3506098 C206.923191,46.7292683 206.121781,46.5189024 205.61094,45.8831301 C205.1001,45.2473577 205.067293,44.4245935 205.545328,44.0506098 C206.023362,43.676626 206.843519,43.8682927 207.335613,44.5180894 Z" id="Path" fill="#E75E13" fill-rule="nonzero"></path>
                    <path d="M199.119986,47.5099593 C199.930769,48.8703252 200.886838,51.5115854 201.149288,54.8634146 C201.328599,57.6840781 201.292564,60.5142602 201.041496,63.3294715 L201.416425,63.3621951 C201.667541,60.5266403 201.702009,57.6761373 201.51953,54.8353659 C201.25708,51.4227642 200.272892,48.7160569 199.443362,47.3182927 L199.119986,47.5099593 Z" id="Path" fill="#2F862D" fill-rule="nonzero"></path>
                    <path d="M199.747991,47.5006098 C199.667455,47.3447832 199.523377,47.2312405 199.352762,47.1891419 C199.182146,47.1470434 199.001616,47.1804909 198.857536,47.2808943 C198.515208,47.5167431 198.132367,47.6878744 197.728063,47.7857724 L198.309202,48.0849593 L198.206097,48.5804878 L198.674758,48.5804878 L198.75443,49.2443089 C198.988883,48.9667345 199.237607,48.7014732 199.499601,48.4495935 C199.499601,48.4495935 200.10886,48.000813 199.747991,47.5006098 Z" id="Path" fill="#009AD8" fill-rule="nonzero"></path>
                    <path d="M200.807165,51.5302846 C200.66582,51.4264267 200.48643,51.3884332 200.314972,51.4260412 C200.143513,51.4636491 199.996651,51.5732029 199.912023,51.726626 C199.710223,52.0831042 199.445005,52.3999297 199.129359,52.6615854 L199.785484,52.6615854 L199.916709,53.129065 L200.343191,52.9046748 L200.713433,53.4656504 C200.79732,53.1127688 200.900581,52.7647511 201.022749,52.4231707 C201.022749,52.4231707 201.355499,51.796748 200.807165,51.5302846 Z" id="Path" fill="#009AD8" fill-rule="nonzero"></path>
                    <path d="M200.333818,49.6930894 C200.248215,49.5394095 200.100526,49.4298391 199.928345,49.3922694 C199.756164,49.3546998 199.5761,49.392755 199.433989,49.496748 C199.09662,49.7397284 198.719076,49.921695 198.318575,50.0343496 L198.909088,50.3148374 L198.820043,50.8103659 L199.288704,50.8103659 L199.382436,51.4695122 C199.610161,51.185898 199.852635,50.9143872 200.10886,50.6560976 C200.10886,50.6560976 200.70406,50.1839431 200.333818,49.6930894 Z" id="Path" fill="#009AD8" fill-rule="nonzero"></path>
                    <path d="M215.546553,54.9288618 C215.354243,57.7399954 215.39343,60.5621273 215.663718,63.3668699 L216.03396,63.3247967 C215.766387,60.5433027 215.728767,57.7445605 215.921481,54.9569106 C216.197991,51.6471545 217.214986,49.0339431 218.077322,47.6922764 L217.763319,47.4912602 C216.87755,48.8703252 215.827749,51.5302846 215.546553,54.9288618 Z" id="Path" fill="#2F862D" fill-rule="nonzero"></path>
                    <path d="M217.922664,47.2388211 C218.037946,47.1253095 218.196698,47.0668932 218.358264,47.0785325 C218.519831,47.0901718 218.66852,47.1707363 218.766254,47.2995935 C218.997344,47.605128 219.283409,47.8651076 219.609843,48.0662602 L219.009957,48.1597561 L218.958405,48.6272358 L218.53661,48.4776423 L218.278846,49.0386179 C218.15403,48.7193791 218.011653,48.4072517 217.852365,48.1036585 C217.852365,48.1036585 217.458689,47.5754065 217.922664,47.2388211 Z" id="Path" fill="#009AD8" fill-rule="nonzero"></path>
                    <path d="M216.465128,51.6050813 C216.595657,51.5098126 216.760988,51.4752116 216.918898,51.5101148 C217.076807,51.5450179 217.212008,51.6460461 217.289972,51.7873984 C217.472926,52.1230695 217.717798,52.4212502 218.011709,52.6662602 L217.407137,52.6662602 L217.285285,53.1337398 L216.89161,52.923374 L216.549487,53.4422764 C216.472831,53.1165559 216.378968,52.7951048 216.268291,52.4792683 C216.268291,52.4792683 215.958974,51.8715447 216.465128,51.6050813 Z" id="Path" fill="#009AD8" fill-rule="nonzero"></path>
                    <path d="M217.15406,49.2349593 C217.280839,49.1336177 217.44536,49.0919151 217.605262,49.120589 C217.765164,49.149263 217.904822,49.2455116 217.988276,49.3845528 C218.184389,49.712618 218.440307,50.001187 218.742821,50.2353659 L218.138248,50.2634146 L218.035142,50.7308943 L217.636781,50.5392276 L217.313405,51.0674797 C217.222906,50.7507098 217.116543,50.438665 216.994715,50.1325203 C216.994715,50.1325203 216.657279,49.520122 217.15406,49.2349593 Z" id="Path" fill="#009AD8" fill-rule="nonzero"></path>
                    <rect id="Rectangle" fill="#584C24" fill-rule="nonzero" x="274.485356" y="52.8813008" width="2.58700855" height="10.9109756"></rect>
                    <rect id="Rectangle" fill="#584C24" fill-rule="nonzero" x="281.196581" y="52.8813008" width="2.59169516" height="10.9109756"></rect>
                    <rect id="Rectangle" fill="#584C24" fill-rule="nonzero" x="287.912493" y="52.8813008" width="2.58700855" height="10.9109756"></rect>
                    <rect id="Rectangle" fill="#584C24" fill-rule="nonzero" x="294.623718" y="52.8813008" width="2.59169516" height="10.9109756"></rect>
                    <rect id="Rectangle" fill="#584C24" fill-rule="nonzero" x="301.33963" y="52.8813008" width="2.58700855" height="10.9109756"></rect>
                    <rect id="Rectangle" fill="#584C24" fill-rule="nonzero" x="308.050855" y="52.8813008" width="2.59169516" height="10.9109756"></rect>
                    <rect id="Rectangle" fill="#584C24" fill-rule="nonzero" x="256.657493" y="45.2987805" width="7.97192308" height="18.4934959"></rect>
                    <path d="M244.069259,58.1077236 C243.595995,58.1589649 243.132389,57.9486619 242.860051,57.5591975 C242.587713,57.1697332 242.550004,56.6631158 242.761695,56.2378049 L259.956866,9.45711382 C260.331795,8.42865854 260.950427,8.42865854 261.330043,9.45711382 L278.520527,56.2518293 C278.732218,56.6771402 278.694509,57.1837575 278.422171,57.5732219 C278.149833,57.9626863 277.686227,58.1729893 277.212963,58.121748 L244.069259,58.1077236 Z" id="Path" fill="#00662D" fill-rule="nonzero"></path>
                    <rect id="Rectangle" fill="#584C24" fill-rule="nonzero" x="247.851353" y="43.6252033" width="4.01173789" height="20.1670732"></rect>
                    <rect id="Rectangle" fill="#584C24" fill-rule="nonzero" x="238.23443" y="52.8813008" width="3.58525641" height="10.9109756"></rect>
                    <path d="M253.822094,39.445935 C253.822094,29.9607724 247.645142,22.2754065 240.024715,22.2754065 C232.404288,22.2754065 226.232023,29.9607724 226.232023,39.445935 C226.232023,48.9310976 232.408974,56.6211382 240.024715,56.6211382 C247.640456,56.6211382 253.822094,48.9310976 253.822094,39.445935 Z" id="Path" fill="#95BD11" fill-rule="nonzero"></path>
                    <path d="M269.859672,58.8603659 C269.37738,58.9096969 268.904751,58.7016879 268.616171,58.3130878 C268.327592,57.9244877 268.265836,57.4128955 268.453689,56.9670732 L275.164915,35.7902439 C275.492977,34.7477642 276.036624,34.7477642 276.364687,35.7902439 L283.075912,56.9670732 C283.260772,57.4128984 283.197744,57.9227631 282.909849,58.3104421 C282.621954,58.6981211 282.151352,58.9068402 281.669929,58.8603659 L269.859672,58.8603659 Z" id="Path" fill="#2F862D" fill-rule="nonzero"></path>
                    <path d="M276.575584,58.8603659 C276.094161,58.9068402 275.623559,58.6981211 275.335664,58.3104421 C275.047768,57.9227631 274.984741,57.4128984 275.169601,56.9670732 L281.880826,35.7902439 C282.213575,34.7477642 282.752536,34.7477642 283.085285,35.7902439 L289.79651,56.9670732 C289.984363,57.4128955 289.922607,57.9244877 289.634028,58.3130878 C289.345449,58.7016879 288.87282,58.9096969 288.390527,58.8603659 L276.575584,58.8603659 Z" id="Path" fill="#2F862D" fill-rule="nonzero"></path>
                    <path d="M283.286809,58.8603659 C282.805386,58.9068402 282.334784,58.6981211 282.046889,58.3104421 C281.758994,57.9227631 281.695966,57.4128984 281.880826,56.9670732 L288.592051,35.7902439 C288.920114,34.7477642 289.459074,34.7477642 289.791823,35.7902439 L296.503048,56.9670732 C296.687909,57.4128984 296.624881,57.9227631 296.336986,58.3104421 C296.049091,58.6981211 295.578489,58.9068402 295.097066,58.8603659 L283.286809,58.8603659 Z" id="Path" fill="#2F862D" fill-rule="nonzero"></path>
                    <path d="M290.002721,58.8603659 C289.521297,58.9068402 289.050696,58.6981211 288.7628,58.3104421 C288.474905,57.9227631 288.411877,57.4128984 288.596738,56.9670732 L295.307963,35.7902439 C295.640712,34.7477642 296.179672,34.7477642 296.507735,35.7902439 L303.21896,56.9670732 C303.406814,57.4128955 303.345058,57.9244877 303.056478,58.3130878 C302.767899,58.7016879 302.29527,58.9096969 301.812977,58.8603659 L290.002721,58.8603659 Z" id="Path" fill="#2F862D" fill-rule="nonzero"></path>
                    <path d="M296.713946,58.8603659 C296.231653,58.9096969 295.759024,58.7016879 295.470445,58.3130878 C295.181865,57.9244877 295.12011,57.4128955 295.307963,56.9670732 L302.019188,35.7902439 C302.347251,34.7477642 302.886211,34.7477642 303.21896,35.7902439 L309.948932,56.9670732 C310.133792,57.4128984 310.070764,57.9227631 309.782869,58.3104421 C309.494974,58.6981211 309.024372,58.9068402 308.542949,58.8603659 L296.713946,58.8603659 Z" id="Path" fill="#2F862D" fill-rule="nonzero"></path>
                    <path d="M303.425171,58.8603659 C302.943748,58.9068402 302.473146,58.6981211 302.185251,58.3104421 C301.897355,57.9227631 301.834328,57.4128984 302.019188,56.9670732 L308.730413,35.7902439 C309.058476,34.7477642 309.602123,34.7477642 309.930185,35.7902439 L316.64141,56.9670732 C316.826271,57.4128984 316.763243,57.9227631 316.475348,58.3104421 C316.187452,58.6981211 315.716851,58.9068402 315.235427,58.8603659 L303.425171,58.8603659 Z" id="Path" fill="#2F862D" fill-rule="nonzero"></path>
                    <path d="M260.669231,42.7042683 C260.669231,49.8800813 255.827963,55.7002033 249.857222,55.7002033 C243.886481,55.7002033 239.040527,49.8800813 239.040527,42.7042683 C239.040527,35.5284553 243.886481,29.7036585 249.857222,29.7036585 C255.827963,29.7036585 260.669231,35.5237805 260.669231,42.7042683 Z" id="Path" fill="#2F862D" fill-rule="nonzero"></path>
                    <rect id="Rectangle" fill="#584C24" fill-rule="nonzero" x="231.921567" y="53.9518293" width="3.23376068" height="9.84044715"></rect>
                    <path d="M228.533148,58.5424797 C228.046397,58.588022 227.570872,58.3780821 227.277387,57.988072 C226.983901,57.5980619 226.914593,57.0839798 227.094359,56.6304878 L232.985427,36.2764228 C233.290057,35.2245935 233.786838,35.2245935 234.091467,36.2764228 L239.982536,56.6304878 C240.162302,57.0839798 240.092994,57.5980619 239.799508,57.988072 C239.506022,58.3780821 239.030498,58.588022 238.543746,58.5424797 L228.533148,58.5424797 Z" id="Path" fill="#00662D" fill-rule="nonzero"></path>
                    <path d="M188.565741,37.3422764 C189.610855,37.3422764 190.487251,39.0065041 191.007464,38.8802846 C191.007464,39.2776423 191.204302,39.2542683 191.602664,38.8054878 C191.988705,38.5946046 192.401823,38.4373234 192.830556,38.3380081 C193.388262,38.2211382 193.856923,38.1697154 193.613219,38.8054878 C193.460295,39.2385429 193.204637,39.6282809 192.868048,39.9414634 C192.554046,40.2172764 193.078946,40.5304878 192.75557,40.9138211 C191.818248,42.0591463 190.777821,40.6006098 190.777821,40.6006098 C190.777821,40.6006098 189.306225,41.8160569 188.814131,40.3434959 C188.60792,39.7357724 189.320285,39.6796748 188.945356,39.1888211 C188.579401,38.6386583 188.443196,37.967737 188.565741,37.3189024" id="Path" fill="#007BAE" fill-rule="nonzero"></path>
                    <path d="M221.062692,28.3386179 C220.434687,28.4180894 220.097251,28.8995935 219.62859,28.6658537 C219.058675,28.4767125 218.435966,28.7335298 218.166368,29.2689024 C218.165123,28.4332986 218.037136,27.602692 217.786752,26.8052846 C216.943162,25.645935 216.961909,24.2715447 215.879302,23.2010163 C216.959094,23.0030529 218.05171,23.4759421 218.644402,24.3977642 C219.165283,25.0677166 219.651754,25.7635974 220.101937,26.4827236 C220.345641,26.2302846 219.994145,25.5898374 220.101937,25.276626 C220.650271,25.276626 220.66433,26.0760163 220.875228,26.4172764 C220.936154,26.1788618 221.479801,25.1644309 221.81255,25.5150407 C222.145299,25.8656504 221.395442,26.6089431 221.343889,26.9174797 C223.012322,26.5902439 225.032251,26.4172764 225.360313,28.5676829" id="Path" fill="#584C24" fill-rule="nonzero"></path>
                    <path d="M198.726311,38.179065 C189.282792,50.4317073 179.511211,63.1004065 169.078818,63.1004065 L166.679274,63.1004065 L166.885484,64.5028455 L169.078818,64.5028455 C180.214202,64.5028455 190.191994,51.5583333 199.841724,39.0345528 C209.285242,26.7865854 219.056823,14.1178862 229.489217,14.1178862 C239.92161,14.1178862 249.697877,26.7865854 259.141396,39.0392276 C268.791125,51.5583333 278.773604,64.5028455 289.908989,64.5028455 L316.622664,64.5028455 L318.34265,63.1004065 L289.908989,63.1004065 C279.467222,63.1004065 269.700328,50.4317073 260.256809,38.179065 C250.60708,25.6599593 240.624601,12.7294715 229.489217,12.7294715 C218.353832,12.7294715 208.37604,25.6599593 198.726311,38.179065 Z" id="Path" fill="#FFFFFF" fill-rule="nonzero"></path>
                    <path d="M244.120812,20.7747967 C244.120812,37.0851626 239.185812,49.0386179 229.451724,56.303252 C223.614132,60.5855698 216.5996,62.9776835 209.355541,63.1565041 L209.355541,64.5589431 C216.896683,64.3721209 224.198854,61.8821955 230.276567,57.4252033 C240.385584,49.8847561 245.512735,37.5573171 245.512735,20.7747967 L244.120812,20.7747967 Z" id="Path" fill="#FFFFFF" fill-rule="nonzero"></path>
                    <path d="M244.336396,20.7747967 C244.336396,37.1646341 239.36859,49.1788618 229.573575,56.4855691 C223.694412,60.7962984 216.631181,63.2046012 209.336795,63.3855691 L209.336795,64.3205285 C216.831902,64.1357111 224.08982,61.662132 230.131282,57.2335366 C240.179373,49.7538618 245.273718,37.4731707 245.273718,20.770122 L244.336396,20.7747967 Z" id="Path" fill="#009AD8" fill-rule="nonzero"></path>
                    <path d="M198.913775,38.3193089 C189.43745,50.6140244 179.633063,63.3294715 169.078818,63.3294715 L166.735513,63.3294715 L166.866738,64.2644309 L169.092877,64.2644309 C180.111097,64.2644309 190.056083,51.3666667 199.673006,38.8896341 C209.14933,26.5949187 218.949031,13.8794715 229.503276,13.8794715 C240.057521,13.8794715 249.847849,26.5902439 259.333547,38.9083333 C268.95047,51.3853659 278.890769,64.2831301 289.913675,64.2831301 L316.90386,64.2831301 L317.911481,63.3481707 L289.908989,63.3481707 C279.350057,63.3481707 269.550356,50.6373984 260.069345,38.3380081 C250.452422,25.8656504 240.512123,12.9632114 229.489217,12.9632114 C218.466311,12.9632114 208.530698,25.8469512 198.913775,38.3193089 Z" id="Path" fill="#E85C0F" fill-rule="nonzero"></path>
                    <path d="M251.834972,44.6396341 C251.834972,44.6723577 252.125541,45.3034553 251.924017,45.4997967 C251.730935,45.6318337 251.618283,45.852637 251.624915,46.0860531 C251.631547,46.3194691 251.756554,46.5335541 251.956823,46.6544715 C251.956823,46.2711382 252.851966,45.1912602 253.240954,45.1678862 C253.747108,45.1398374 252.833219,46.3085366 252.814473,46.4581301 C253.02537,46.4581301 253.826781,44.8126016 253.948632,45.7989837 C253.96191,46.2170523 253.840348,46.6283384 253.601823,46.9723577 C253.292565,47.3723791 253.217748,47.9054411 253.404986,48.3747967 C253.672123,49.2302846 253.615883,50.2680894 254.342308,50.922561 C254.895328,51.4367886 255.710798,51.450813 256.423162,51.3900407 C258.649302,51.2030488 261.04416,49.9221545 263.21406,50.9739837 C264.189254,51.3810383 264.879304,52.2680373 265.032464,53.3113821 C265.098711,53.6643114 265.130105,54.0228696 265.126197,54.3819106 C265.07933,55.2140244 264.657536,54.2369919 264.502877,53.9471545 C262.721966,55.3215447 266.040085,56.8361789 266.24161,58.1544715 C266.311795,58.9316554 266.322762,59.7130308 266.274416,60.4918699 C266.274416,61.2445122 266.424387,62.029878 266.166624,62.7544715 C266.110385,62.9087398 265.533932,63.6520325 265.416766,63.2640244 C265.299601,62.8760163 265.63235,62.329065 265.697963,61.9504065 C265.7313,61.2254177 265.658677,60.4994487 265.482379,59.7953252 C265.4308,59.3687575 265.318765,58.9516549 265.14963,58.5565041 C264.948105,58.0890244 264.282607,56.5556911 263.542123,56.925 C264.010783,58.2386179 262.993789,59.5802846 262.848504,60.8658537 C262.731339,61.8989837 262.520442,63.2313008 261.259744,63.3808943 C261.297236,62.8573171 261.798704,62.5721545 261.929929,62.1 C262.084587,61.548374 262.10802,60.9686992 262.225185,60.4077236 C262.539188,58.925813 262.379843,57.2615854 261.287863,56.1069106 C260.453647,55.2280488 258.888319,56.1489837 258.007236,56.4341463 C257.423426,56.5432411 256.829251,56.5871431 256.235698,56.5650407 C255.551453,56.6304878 255.415541,57.1166667 255.415541,57.7337398 C255.415541,58.350813 255.495214,58.9398374 255.490527,59.547561 C255.490527,60.0150407 255.406168,60.4591463 255.424915,60.903252 C255.443661,61.3473577 255.621752,61.7119919 255.626439,62.1327236 C255.578759,62.6091741 255.354869,63.0508264 254.998433,63.3715447 C254.600071,63.7642276 254.759416,63.0162602 254.787536,62.8292683 C254.862521,62.3150407 255.134345,58.0703252 254.525085,58.0796748 C254.514426,58.7928868 254.447039,59.5041303 254.323561,60.2067073 C254.24908,61.1814483 253.989856,62.133241 253.559644,63.0115854 C253.428419,63.2359756 253.222208,63.479065 252.931638,63.479065 C252.462977,63.479065 252.866026,62.8760163 252.978504,62.6609756 C253.217382,62.2755807 253.422779,61.870514 253.59245,61.4502033 C253.873647,60.5152439 253.615883,59.3512195 253.686182,58.3928862 C253.78045,57.7418406 253.682746,57.0775012 253.404986,56.4808943 C253.001586,55.5657599 252.68769,54.6139203 252.467664,53.6386179 C252.261453,52.8158537 252.078675,51.9884146 251.886524,51.1609756 C251.736553,50.4924797 251.417863,49.9128049 250.677379,49.8567073 C250.391496,49.8567073 248.573091,49.3611789 248.97614,48.8936992 C249.379188,48.4262195 250.06812,48.3186992 250.499288,47.9587398 C250.983651,47.6024934 251.252262,47.0243201 251.211652,46.4254065 C251.211652,46.2430894 251.211652,44.597561 251.085114,44.5554878 C251.34258,44.628225 251.609669,44.6613299 251.877151,44.6536585" id="Path" fill="#A15E2D"></path>
                    <line x1="166.721453" y1="63.3762195" x2="166.721453" y2="63.3481707" id="Path"></line>
                    <path d="M318.05208,63.3154472 C282.630684,93.2341463 173.099929,90.0038618 173.099929,90.0038618 C170.508234,83.5479675 168.183675,73.5392276 166.730826,63.3154472" id="Path" fill="url(#linearGradient-1)" fill-rule="nonzero"></path>
                    <path d="M0,72.8239837 C0,20.2745935 155.881325,24.8839431 155.881325,24.8839431 C159.227564,33.2424797 162.137949,47.5473577 163.286168,60.5666667 C166.13094,92.7339431 138.386211,114.89248 74.240584,114.89248 C26.3574929,114.89248 0.0187464387,102.906301 0.0187464387,72.8193089" id="Path" fill="#2C882B" fill-rule="nonzero"></path>
                    <path d="M31.5877493,63.3481707 C30.1202752,63.3707771 28.6562618,63.1994367 27.2338889,62.8386179 L27.2338889,45.4109756 L29.8630769,45.4109756 L29.8630769,50.9739837 C29.8677166,51.7491978 29.7939192,52.5229005 29.6428063,53.2833333 L29.6896724,53.2833333 C30.3518138,51.7451342 31.8929844,50.7704058 33.5701852,50.829065 C36.4711966,50.829065 38.0693372,52.8719512 38.0693372,56.5182927 C38.0740171,60.7022358 35.6416667,63.3481707 31.5877493,63.3481707 Z M32.8859402,52.9934959 C30.9222507,52.9934959 29.8630769,55.2560976 29.8630769,57.2943089 L29.8630769,61.0341463 C30.4855281,61.2137699 31.1321907,61.2957789 31.7799003,61.2772358 C33.8701282,61.2772358 35.2948575,60.0150407 35.2948575,56.7567073 C35.313604,54.3351626 34.5356268,52.9934959 32.8859402,52.9934959 L32.8859402,52.9934959 Z" id="Shape" fill="#FFFFFF" fill-rule="nonzero"></path>
                    <path d="M42.7653134,49.272385 C41.8593933,49.272385 41.125,48.5398155 41.125,47.6361789 C41.125,46.7325422 41.8593933,46 42.7653134,46 C43.2040188,45.9925031 43.6275467,46.1601387 43.9417389,46.4656381 C44.2559311,46.7711375 44.4347473,47.1891809 44.438433,47.6268293 C44.4306979,48.5415508 43.6823642,49.2775438 42.7653134,49.272385 Z M41.4390028,63.1565041 L41.4390028,51.0628049 L44.0681909,51.0628049 L44.0681909,63.1471545 L41.4390028,63.1565041 Z" id="Shape" fill="#FFFFFF" fill-rule="nonzero"></path>
                    <path d="M52.9633761,63.3995935 C49.5749573,63.3995935 47.3628775,61.5296748 47.3628775,57.270935 C47.3628775,53.6245935 49.7483618,50.829065 53.4554701,50.829065 C56.7360969,50.829065 59.0372222,52.6288618 59.0372222,56.8829268 C59.0372222,60.604065 56.5767521,63.3995935 52.9633761,63.3995935 Z M53.2351994,53.0168699 C51.6370655,53.0168699 50.0904843,54.2323171 50.0904843,57.0044715 C50.0904843,59.776626 51.1730912,61.1603659 53.2117664,61.1603659 C54.9083191,61.1603659 56.3330484,59.8514228 56.3330484,57.0512195 C56.3330484,54.4754065 55.3254274,53.0168699 53.2351994,53.0168699 Z" id="Shape" fill="#FFFFFF" fill-rule="nonzero"></path>
                    <path d="M69.750812,63.1565041 C69.7475544,62.3988805 69.8055438,61.6422284 69.9242165,60.8939024 L69.8726638,60.8939024 C69.1800468,62.458046 67.6072787,63.4484805 65.8937322,63.3995935 C62.894302,63.3995935 61.3945869,61.2117886 61.3945869,57.7103659 C61.3945869,53.5544715 63.8269373,50.8804878 67.7824359,50.8804878 C68.3729487,50.8804878 68.9634615,50.9272358 69.6289601,50.9739837 L69.6289601,45.4109756 L72.2347151,45.4109756 L72.2347151,63.1752033 L69.750812,63.1565041 Z M69.6289601,53.1617886 C68.9903739,53.0200155 68.3382283,52.9479117 67.6840171,52.946748 C65.5984758,52.946748 64.1737464,54.2089431 64.1737464,57.4672764 C64.1737464,59.8981707 64.9329772,61.2585366 66.6060969,61.2585366 C68.5463533,61.2585366 69.6289601,58.972561 69.6289601,56.9063008 L69.6289601,53.1617886 Z" id="Shape" fill="#FFFFFF" fill-rule="nonzero"></path>
                    <path d="M77.8867664,49.2723843 C76.9808463,49.2723843 76.246453,48.5398155 76.246453,47.6361789 C76.246453,46.7325422 76.9808463,46 77.8867664,46 C78.3250355,45.9924979 78.7480832,46.1602787 79.0615337,46.4659132 C79.3749843,46.7715476 79.5527592,47.1896073 79.5551994,47.6268293 C79.5527205,48.0657324 79.3755453,48.4856761 79.0626519,48.7942741 C78.7497585,49.1028721 78.3267785,49.2748444 77.8867664,49.2723843 Z M76.5557692,63.1565041 L76.5557692,51.0628049 L79.1849573,51.0628049 L79.1849573,63.1471545 L76.5557692,63.1565041 Z" id="Shape" fill="#FFFFFF" fill-rule="nonzero"></path>
                    <path d="M88.9940313,63.1565041 L86.3132906,63.1565041 L81.7438462,51.0628049 L84.6401709,51.0628049 L86.9272365,57.4579268 C87.2224929,58.2853659 87.4943162,59.1361789 87.7145869,59.9355691 L87.7380199,59.9355691 C87.9348575,59.1829268 88.1832479,58.3321138 88.4503846,57.5560976 L90.7936895,51.0628049 L93.6056553,51.0628049 L88.9940313,63.1565041 Z" id="Path" fill="#FFFFFF" fill-rule="nonzero"></path>
                    <path d="M105.256567,57.270935 L97.4674217,57.270935 C97.3924359,60.075813 98.6484473,61.3333333 101.080798,61.3333333 C102.310773,61.3337565 103.526129,61.0673712 104.642621,60.5526423 L104.891011,62.6189024 C103.548816,63.1485724 102.116412,63.413693 100.673063,63.3995935 C96.862849,63.3995935 94.7726211,61.454878 94.7726211,57.200813 C94.7726211,53.5544715 96.7878632,50.829065 100.354373,50.829065 C103.841211,50.829065 105.340926,53.1898374 105.340926,56.0554878 C105.334897,56.4618619 105.306736,56.867609 105.256567,57.270935 Z M100.246581,52.7504065 C98.7702991,52.7504065 97.739245,53.820935 97.5189744,55.4477642 L102.702365,55.4477642 C102.753917,53.797561 101.793162,52.7504065 100.246581,52.7504065 L100.246581,52.7504065 Z" id="Shape" fill="#FFFFFF" fill-rule="nonzero"></path>
                    <path d="M115.037521,53.4002033 C112.605171,52.9654472 111.424145,54.6390244 111.424145,58.2619919 L111.424145,63.1752033 L108.794957,63.1752033 L108.794957,51.0628049 L111.302293,51.0628049 C111.29445,51.9592779 111.212942,52.8536009 111.05859,53.7367886 L111.105456,53.7367886 C111.649103,52.1099593 112.876994,50.6 115.16406,50.8197154 L115.037521,53.4002033 Z" id="Path" fill="#FFFFFF" fill-rule="nonzero"></path>
                    <path d="M120.028761,63.3995935 C119.162348,63.3974432 118.297957,63.316073 117.446439,63.1565041 L117.521425,60.9453252 C118.384357,61.1919422 119.276459,61.322433 120.174046,61.3333333 C121.580028,61.3333333 122.582963,60.7256098 122.582963,59.729878 C122.582963,57.2943089 117.226168,58.7575203 117.226168,54.5876016 C117.226168,52.4979675 118.946154,50.8477642 122.264274,50.8477642 C123.031172,50.8620021 123.795813,50.9354602 124.551339,51.0674797 L124.476353,53.1804878 C123.700406,52.959812 122.897734,52.8465572 122.090869,52.8439024 C120.642707,52.8439024 119.930342,53.4235772 119.930342,54.349187 C119.930342,56.6865854 125.334003,55.4898374 125.334003,59.4914634 C125.334003,61.7447154 123.295328,63.3995935 120.028761,63.3995935 Z" id="Path" fill="#FFFFFF" fill-rule="nonzero"></path>
                    <path d="M130.175271,49.272385 C129.269351,49.272385 128.534957,48.5398155 128.534957,47.6361789 C128.534957,46.7325422 129.269351,46 130.175271,46 C130.613976,45.9925031 131.037504,46.1601387 131.351696,46.4656381 C131.665888,46.7711375 131.844705,47.1891809 131.84839,47.6268293 C131.840655,48.5415508 131.092321,49.2775438 130.175271,49.272385 Z M128.84896,63.1565041 L128.84896,51.0628049 L131.478148,51.0628049 L131.478148,63.1471545 L128.84896,63.1565041 Z" id="Shape" fill="#FFFFFF" fill-rule="nonzero"></path>
                    <path d="M139.712521,63.3762195 C137.106766,63.3762195 136.319416,62.375813 136.319416,59.6784553 L136.319416,53.0916667 L133.976111,53.0916667 L133.976111,51.0628049 L136.319416,51.0628049 L136.319416,47.2247967 L138.925171,46.5189024 L138.925171,51.0628049 L142.168305,51.0628049 L142.168305,53.0823171 L138.972037,53.0823171 L138.972037,58.8697154 C138.972037,60.6648374 139.342279,61.1510163 140.570171,61.1510163 C141.108689,61.1517685 141.645314,61.0874103 142.168305,60.9593496 L142.168305,63.0957317 C141.361007,63.2699043 140.538394,63.3638592 139.712521,63.3762195 L139.712521,63.3762195 Z" id="Path" fill="#FFFFFF" fill-rule="nonzero"></path>
                    <path d="M150.744801,64.3205285 C149.338818,68.0884146 148.115613,69.2571138 145.359886,69.2571138 C144.807791,69.2471462 144.257515,69.19085 143.714886,69.0888211 L143.911724,66.8028455 C144.42414,66.9864103 144.965447,67.0766647 145.509858,67.0693089 C146.737749,67.0693089 147.426681,66.5083333 148.185912,64.4420732 L148.678006,63.1565041 L144.108561,51.0628049 L147.056439,51.0628049 L149.048248,56.5837398 C149.441923,57.6495935 149.737179,58.720122 150.009003,59.7439024 L150.009003,59.7439024 C150.252707,58.7715447 150.768234,57.2148374 151.213462,55.9760163 L152.980313,51.0628049 L155.792279,51.0628049 L150.744801,64.3205285 Z" id="Path" fill="#FFFFFF" fill-rule="nonzero"></path>
                    <path d="M15.9485328,80.3737805 L8.15938746,80.3737805 C8.08440171,83.1786585 9.3357265,84.4361789 11.7680769,84.4361789 C12.9996169,84.4371309 14.2166125,84.1707367 15.3345869,83.6554878 L15.5782906,85.721748 C14.2360955,86.2514179 12.8036914,86.5165385 11.3603419,86.502439 C7.55012821,86.502439 5.46458689,84.5577236 5.46458689,80.3036585 C5.46458689,76.6573171 7.47982906,73.9319106 11.0416524,73.9319106 C14.6034758,73.9319106 16.0328917,76.2926829 16.0328917,79.1583333 C16.0235185,79.4995935 15.9953989,79.9156504 15.9485328,80.3737805 Z M10.9432336,75.8392276 C9.46695157,75.8392276 8.43589744,76.9097561 8.21562678,78.5365854 L13.3990171,78.5365854 C13.4411966,76.9004065 12.4804416,75.8392276 10.9432336,75.8392276 Z" id="Shape" fill="#FFFFFF" fill-rule="nonzero"></path>
                    <polygon id="Path" fill="#FFFFFF" fill-rule="nonzero" points="26.2403276 86.2593496 23.4892877 81.8837398 20.7101282 86.2593496 17.5372934 86.2593496 21.9145869 80.1821138 17.7856838 74.175 20.9538319 74.175 23.6814387 78.4804878 26.4605983 74.175 29.3850427 74.175 25.3545584 80.1306911 29.5725071 86.2593496"></polygon>
                    <path d="M36.7570798,86.4276423 C36.1397925,86.4418769 35.5226579,86.3933198 34.9152422,86.2827236 L34.9152422,92.2010163 L32.2860541,92.2010163 L32.2860541,74.175 L34.7652707,74.175 C34.7770112,74.9318488 34.7284299,75.6884312 34.6199858,76.4376016 L34.6668519,76.4376016 C35.3435046,74.8684703 36.9155769,73.8737877 38.627037,73.9319106 C41.5233618,73.9319106 43.1214957,75.9747967 43.1214957,79.6211382 C43.1214957,83.8752033 40.8391168,86.4276423 36.7570798,86.4276423 Z M37.9381054,76.0729675 C35.9697293,76.0729675 34.9152422,78.3589431 34.9152422,80.4252033 L34.9152422,84.1416667 C35.5382749,84.3184707 36.1845002,84.4004243 36.8320655,84.3847561 C38.9222934,84.3847561 40.3470228,83.122561 40.3470228,79.8642276 C40.3470228,77.4333333 39.5831054,76.0729675 37.9381054,76.0729675 L37.9381054,76.0729675 Z" id="Shape" fill="#FFFFFF" fill-rule="nonzero"></path>
                    <polygon id="Path" fill="#FFFFFF" fill-rule="nonzero" points="46.3646296 86.2593496 46.3646296 68.495122 48.9938177 68.495122 48.9938177 86.2593496"></polygon>
                    <path d="M57.767151,86.502439 C54.3787322,86.502439 52.1666524,84.6325203 52.1666524,80.3737805 C52.1666524,76.727439 54.5521368,73.9319106 58.259245,73.9319106 C61.5398718,73.9319106 63.8409972,75.7317073 63.8409972,79.9857724 C63.8409972,83.7069106 61.3805271,86.502439 57.767151,86.502439 Z M58.0389744,76.1197154 C56.4408405,76.1197154 54.8942593,77.3351626 54.8942593,80.1073171 C54.8942593,82.8794715 55.9768661,84.2632114 58.0155413,84.2632114 C59.712094,84.2632114 61.1368234,82.9542683 61.1368234,80.1587398 C61.1368234,77.578252 60.1526353,76.1197154 58.0389744,76.1197154 Z" id="Shape" fill="#FFFFFF" fill-rule="nonzero"></path>
                    <path d="M73.2985755,76.4843496 C70.8662251,76.0495935 69.689886,77.7278455 69.689886,81.3461382 L69.689886,86.2593496 L67.0560114,86.2593496 L67.0560114,74.175 L69.5633476,74.175 C69.5578693,75.0715889 69.476344,75.9661077 69.3196439,76.8489837 L69.36651,76.8489837 C69.9101567,75.2221545 71.1380484,73.7168699 73.425114,73.9319106 L73.2985755,76.4843496 Z" id="Path" fill="#FFFFFF" fill-rule="nonzero"></path>
                    <path d="M82.1797009,86.2593496 C82.1692779,85.510906 82.2115614,84.7626562 82.3062393,84.020122 L82.2781197,83.996748 C81.56501,85.5779975 79.9611629,86.5693214 78.2242023,86.502439 C76.138661,86.502439 74.8076638,85.3337398 74.8076638,83.4123984 C74.8076638,80.6449187 77.6196296,79.0367886 82.0109829,79.0367886 L82.0109829,78.2607724 C82.0109829,76.7554878 81.3689174,75.9747967 79.452094,75.9747967 C78.1769823,75.9875672 76.9258578,76.3220749 75.8152849,76.9471545 L75.5715812,74.7359756 C76.9441623,74.2129535 78.3999033,73.9405911 79.8692023,73.9319106 C83.61849,73.9319106 84.6401709,75.5400407 84.6401709,78.0176829 L84.6401709,82.9542683 C84.6401709,83.996748 84.663604,85.2355691 84.7151567,86.2593496 L82.1797009,86.2593496 Z M82.0109829,80.7898374 C78.1773362,80.7898374 77.3243732,81.9304878 77.3243732,82.9776423 C77.3243732,83.8752033 77.9664387,84.4595528 78.9974929,84.4595528 C80.7924644,84.4595528 81.9969231,82.7579268 81.9969231,81.0329268 L82.0109829,80.7898374 Z" id="Shape" fill="#FFFFFF" fill-rule="nonzero"></path>
                    <path d="M92.5417949,86.479065 C89.9360399,86.479065 89.1486895,85.4786585 89.1486895,82.7813008 L89.1486895,76.1945122 L86.8053846,76.1945122 L86.8053846,74.175 L89.1486895,74.175 L89.1486895,70.3369919 L91.7544444,69.6310976 L91.7544444,74.175 L94.9741453,74.175 L94.9741453,76.1945122 L91.7778775,76.1945122 L91.7778775,81.9819106 C91.7778775,83.7770325 92.1481197,84.2632114 93.3760114,84.2632114 C93.914546,84.2642406 94.4512039,84.1998783 94.9741453,84.0715447 L94.9741453,86.2079268 C94.1742017,86.37743 93.3595166,86.4682444 92.5417949,86.479065 L92.5417949,86.479065 Z" id="Path" fill="#FFFFFF" fill-rule="nonzero"></path>
                    <path d="M102.688305,86.502439 C99.2951994,86.502439 97.0643732,84.6325203 97.0643732,80.3737805 C97.0643732,76.727439 99.4498575,73.9319106 103.156966,73.9319106 C106.437593,73.9319106 108.734031,75.7317073 108.734031,79.9857724 C108.757464,83.7069106 106.301681,86.502439 102.688305,86.502439 Z M102.955442,76.1197154 C101.361994,76.1197154 99.8107265,77.3351626 99.8107265,80.1073171 C99.8107265,82.8794715 100.893333,84.2632114 102.932009,84.2632114 C104.628561,84.2632114 106.053291,82.9542683 106.053291,80.1587398 C106.053291,77.578252 105.04567,76.1197154 102.955442,76.1197154 Z" id="Shape" fill="#FFFFFF" fill-rule="nonzero"></path>
                    <path d="M118.219729,76.4843496 C115.787379,76.0495935 114.606353,77.7278455 114.606353,81.3461382 L114.606353,86.2593496 L111.977165,86.2593496 L111.977165,74.175 L114.484501,74.175 C114.477208,75.0717079 114.394117,75.9662052 114.236111,76.8489837 L114.287664,76.8489837 C114.826624,75.2221545 116.054516,73.7168699 118.341581,73.9319106 L118.219729,76.4843496 Z" id="Path" fill="#FFFFFF" fill-rule="nonzero"></path>
                    <path d="M122.395499,72.379878 C121.489579,72.379878 120.755185,71.6473358 120.755185,70.7436992 C120.755185,69.8400626 121.489579,69.1075203 122.395499,69.1075203 C123.301419,69.1075203 124.035812,69.8400626 124.035812,70.7436992 C124.035812,71.6473358 123.301419,72.379878 122.395499,72.379878 L122.395499,72.379878 Z M121.078561,86.2593496 L121.078561,74.175 L123.707749,74.175 L123.707749,86.2593496 L121.078561,86.2593496 Z" id="Shape" fill="#FFFFFF" fill-rule="nonzero"></path>
                    <path d="M137.411396,80.3737805 L129.622251,80.3737805 C129.547265,83.1786585 130.79859,84.4361789 133.235627,84.4361789 C134.465602,84.4366021 135.680958,84.1702167 136.79745,83.6554878 L137.041154,85.721748 C135.698959,86.2514179 134.266555,86.5165385 132.823205,86.502439 C129.017678,86.502439 126.92745,84.5577236 126.92745,80.3036585 C126.92745,76.6573171 128.942692,73.9319106 132.504516,73.9319106 C135.99604,73.9319106 137.495755,76.2926829 137.495755,79.1583333 C137.481695,79.4995935 137.481695,79.9156504 137.411396,80.3737805 Z M132.396724,75.8392276 C130.925128,75.8392276 129.889387,76.9097561 129.669117,78.5365854 L134.857194,78.5365854 C134.90406,76.9004065 133.947991,75.8392276 132.396724,75.8392276 Z" id="Shape" fill="#FFFFFF" fill-rule="nonzero"></path>
                    <path d="M142.843177,86.502439 C141.976764,86.5002888 141.112373,86.4189185 140.260855,86.2593496 L140.33584,84.0481707 C141.198773,84.2947878 142.090875,84.4252786 142.988462,84.4361789 C144.394444,84.4361789 145.397379,83.8284553 145.397379,82.8327236 C145.397379,80.4018293 140.040584,81.8603659 140.040584,77.6904472 C140.040584,75.600813 141.76057,73.9506098 145.078689,73.9506098 C145.845588,73.9648476 146.610229,74.0383057 147.365755,74.1703252 L147.290769,76.2880081 C146.515515,76.0635618 145.712531,75.9486894 144.905285,75.946748 C143.457123,75.946748 142.744758,76.5310976 142.744758,77.4520325 C142.744758,79.7894309 148.148419,78.5973577 148.148419,82.5943089 C148.148419,84.847561 146.109744,86.502439 142.843177,86.502439 Z" id="Path" fill="#FFFFFF" fill-rule="nonzero"></path>
                    <path d="M45.1273647,92.5235772 C44.9266028,92.4640218 44.7181831,92.4340976 44.5087322,92.4347561 C43.922906,92.4347561 43.6604558,92.7526423 43.6604558,93.4632114 L43.6604558,93.8278455 L44.8367949,93.8278455 L44.8367949,94.5851626 L43.6604558,94.5851626 L43.6604558,98.3577236 L42.6903276,98.3577236 L42.6903276,94.5851626 L41.8233048,94.5851626 L41.8233048,93.8278455 L42.6903276,93.8278455 L42.6903276,93.4819106 C42.6903276,92.2430894 43.2855271,91.6400239 44.4618661,91.6400239 C44.7111369,91.6392341 44.959649,91.6674742 45.2023504,91.724187 L45.1273647,92.5235772 Z" id="Path" fill="#FFFFFF" fill-rule="nonzero"></path>
                    <path d="M48.6470085,98.3577236 C48.646397,98.0619783 48.668331,97.7666147 48.7126211,97.474187 L48.7126211,97.474187 C48.4374481,98.0938047 47.812221,98.4842806 47.1332336,98.4605691 C46.0974929,98.4605691 45.7788034,97.8107724 45.7788034,97.0113821 L45.7788034,93.8371951 L46.7489316,93.8371951 L46.7489316,96.7542683 C46.7489316,97.3199187 46.9035897,97.6471545 47.4238034,97.6471545 C48.1080484,97.6471545 48.6095157,96.9272358 48.6095157,96.025 L48.6095157,93.8371951 L49.5890171,93.8371951 L49.5890171,98.3670732 L48.6470085,98.3577236 Z" id="Path" fill="#FFFFFF" fill-rule="nonzero"></path>
                    <path d="M53.9381909,98.3577236 L53.9381909,95.4406504 C53.9381909,94.875 53.7835328,94.5477642 53.2633191,94.5477642 C52.5790741,94.5477642 52.0776068,95.2676829 52.0776068,96.1699187 L52.0776068,98.3577236 L51.0981054,98.3577236 L51.0981054,93.8278455 L52.0354274,93.8278455 C52.036388,94.1236033 52.014452,94.4189935 51.9698148,94.7113821 L51.9698148,94.7113821 C52.2474383,94.0944754 52.8716826,93.7064609 53.5492023,93.7296748 C54.584943,93.7296748 54.9036325,94.3747967 54.9036325,95.1788618 L54.9036325,98.348374 L53.9381909,98.3577236 Z" id="Path" fill="#FFFFFF" fill-rule="nonzero"></path>
                    <path d="M58.0811538,98.43253 C56.9095014,98.43253 56.0612251,97.8575203 56.0612251,96.2447154 C56.0612251,94.804878 56.8017094,93.7577236 58.3623504,93.7577236 C58.6968386,93.7545827 59.0299891,93.8002557 59.3512251,93.8932927 L59.2481197,94.7394309 C58.9558964,94.6291866 58.6466281,94.5706529 58.3342308,94.5664634 C57.5047009,94.5664634 57.082906,95.1788618 57.082906,96.1371951 C57.082906,96.9646341 57.3875356,97.5957317 58.2920513,97.5957317 C58.6324868,97.5970904 58.9688629,97.521996 59.2762393,97.3760163 L59.3605983,98.2034553 C58.9513959,98.3559322 58.5179747,98.4335296 58.0811538,98.43253 Z" id="Path" fill="#FFFFFF" fill-rule="nonzero"></path>
                    <path d="M61.9991595,98.4418699 C61.0290313,98.4418699 60.7384615,98.0678862 60.7384615,97.0394309 L60.7384615,94.5851626 L59.8714387,94.5851626 L59.8714387,93.8278455 L60.7384615,93.8278455 L60.7384615,92.3880081 L61.7039031,92.1262195 L61.7039031,93.8278455 L62.9036752,93.8278455 L62.9036752,94.5851626 L61.7132764,94.5851626 L61.7132764,96.7542683 C61.7132764,97.427439 61.8538746,97.6097561 62.3084758,97.6097561 C62.5090285,97.6111879 62.7089754,97.5876316 62.9036752,97.5396341 L62.9036752,98.3390244 C62.606274,98.4027698 62.3033137,98.4372171 61.9991595,98.4418699 Z" id="Path" fill="#FFFFFF" fill-rule="nonzero"></path>
                    <path d="M64.539302,93.1359756 C64.3080154,93.1561902 64.085081,93.044535 63.9631871,92.8474323 C63.8412931,92.6503296 63.8412931,92.4014996 63.9631871,92.2043969 C64.085081,92.0072942 64.3080154,91.8956391 64.539302,91.9158537 C64.7029391,91.9133568 64.8608031,91.9761317 64.9778379,92.0902383 C65.0948728,92.2043449 65.1613909,92.3603381 65.1626211,92.5235772 C65.1574989,92.8633024 64.8799241,93.136014 64.539302,93.1359756 L64.539302,93.1359756 Z M64.047208,98.3390244 L64.047208,93.8091463 L65.0220228,93.8091463 L65.0220228,98.3390244 L64.047208,98.3390244 Z" id="Shape" fill="#FFFFFF" fill-rule="nonzero"></path>
                    <path d="M68.2417236,98.4512195 C66.976339,98.4512195 66.1561823,97.75 66.1561823,96.1558943 C66.1561823,94.7861789 67.0419516,93.7390244 68.4245014,93.7390244 C69.6383333,93.7390244 70.4959829,94.4121951 70.4959829,96.0063008 C70.4959829,97.404065 69.582094,98.4512195 68.2417236,98.4512195 Z M68.3401425,94.5571138 C67.744943,94.5571138 67.16849,95.0245935 67.16849,96.0530488 C67.16849,97.0815041 67.5715385,97.6097561 68.3307692,97.6097561 C68.9634615,97.6097561 69.4930484,97.1189024 69.4930484,96.071748 C69.4930484,95.104065 69.1181197,94.5384146 68.3401425,94.5384146 L68.3401425,94.5571138 Z" id="Shape" fill="#FFFFFF" fill-rule="nonzero"></path>
                    <path d="M74.4889744,98.3577236 L74.4889744,95.4406504 C74.4889744,94.875 74.3343162,94.5477642 73.8141026,94.5477642 C73.1298575,94.5477642 72.6283903,95.2676829 72.6283903,96.1699187 L72.6283903,98.3577236 L71.6488889,98.3577236 L71.6488889,93.8278455 L72.5862108,93.8278455 C72.5871715,94.1236033 72.5652355,94.4189935 72.5205983,94.7113821 L72.5205983,94.7113821 C72.7982218,94.0944754 73.4224661,93.7064609 74.0999858,93.7296748 C75.1357265,93.7296748 75.454416,94.3747967 75.454416,95.1788618 L75.454416,98.348374 L74.4889744,98.3577236 Z" id="Path" fill="#FFFFFF" fill-rule="nonzero"></path>
                    <path d="M79.3958547,98.3577236 C79.3915695,98.0780385 79.407231,97.7984036 79.4427208,97.520935 L79.4427208,97.520935 C79.1803694,98.1103524 78.584367,98.4807575 77.9383191,98.4558943 C77.6094551,98.4972775 77.2789671,98.3924755 77.0344349,98.1692611 C76.7899028,97.9460466 76.6560135,97.6269546 76.6682479,97.2965447 C76.6682479,96.2587398 77.7086752,95.6556911 79.344302,95.6556911 L79.344302,95.3658537 C79.344302,94.8002033 79.1052849,94.5056911 78.4069801,94.5056911 C77.9312552,94.5111266 77.4648941,94.638288 77.0525499,94.875 L76.9635043,94.0428862 C77.4736629,93.8474683 78.0151609,93.7460944 78.5616382,93.7436992 C79.9676211,93.7436992 80.3378632,94.3420732 80.3378632,95.2723577 L80.3378632,97.1422764 C80.3378632,97.5349593 80.3378632,97.9977642 80.3378632,98.3810976 L79.3958547,98.3577236 Z M79.3349288,96.3101626 C77.9289459,96.3101626 77.5961966,96.7355691 77.5961966,97.128252 C77.5935309,97.2883641 77.6607493,97.4417295 77.7803894,97.5485061 C77.9000296,97.6552828 78.0602821,97.704931 78.2195157,97.6845528 C78.8811446,97.6322705 79.3780026,97.059617 79.3349288,96.3989837 L79.3349288,96.3101626 Z" id="Shape" fill="#FFFFFF" fill-rule="nonzero"></path>
                    <polygon id="Path" fill="#FFFFFF" fill-rule="nonzero" points="81.8469516 98.3577236 81.8469516 91.7054878 82.826453 91.7054878 82.826453 98.3577236"></polygon>
                    <path d="M88.0426496,98.4325203 C87.4975833,98.4398593 86.9539295,98.375414 86.4257692,98.2408537 L86.4257692,91.6961382 L87.4052707,91.6961382 L87.4052707,93.7810976 C87.4064257,94.0730221 87.378164,94.3643233 87.3209117,94.6506098 L87.3209117,94.6506098 C87.5603714,94.0698924 88.1351396,93.6976071 88.7643875,93.7156504 C89.8423077,93.7156504 90.4375071,94.4776423 90.4375071,95.8473577 C90.4562536,97.4367886 89.5517379,98.4325203 88.0426496,98.4325203 Z M88.5113105,94.5477642 C87.7801994,94.5477642 87.3912108,95.3985772 87.3912108,96.1605691 L87.3912108,97.5630081 C87.6228569,97.6280801 87.8629988,97.6580222 88.1035755,97.6518293 C88.8768661,97.6518293 89.4111396,97.1843496 89.4111396,95.954878 C89.4251994,95.0479675 89.1393162,94.5384146 88.5253704,94.5384146 L88.5113105,94.5477642 Z" id="Shape" fill="#FFFFFF" fill-rule="nonzero"></path>
                    <path d="M92.1106268,93.1359756 C91.8793402,93.1561902 91.6564058,93.044535 91.5345119,92.8474323 C91.4126179,92.6503296 91.4126179,92.4014996 91.5345119,92.2043969 C91.6564058,92.0072942 91.8793402,91.8956391 92.1106268,91.9158537 C92.2742639,91.9133568 92.4321279,91.9761317 92.5491627,92.0902383 C92.6661976,92.2043449 92.7327157,92.3603381 92.7339459,92.5235772 C92.7288237,92.8633024 92.4512489,93.136014 92.1106268,93.1359756 L92.1106268,93.1359756 Z M91.6185328,98.3390244 L91.6185328,93.8091463 L92.5933476,93.8091463 L92.5933476,98.3390244 L91.6185328,98.3390244 Z" id="Shape" fill="#FFFFFF" fill-rule="nonzero"></path>
                    <path d="M95.8130484,98.4512195 C94.5523504,98.4512195 93.7275071,97.75 93.7275071,96.1558943 C93.7275071,94.7861789 94.6132764,93.7390244 95.9958262,93.7390244 C97.2096581,93.7390244 98.0673077,94.4121951 98.0673077,96.0063008 C98.0673077,97.404065 97.1768519,98.4512195 95.8130484,98.4512195 Z M95.9114672,94.5571138 C95.3162678,94.5571138 94.7398148,95.0245935 94.7398148,96.0530488 C94.7398148,97.0815041 95.1428632,97.6097561 95.902094,97.6097561 C96.5347863,97.6097561 97.0643732,97.1189024 97.0643732,96.071748 C97.0643732,95.104065 96.7081909,94.5384146 95.9114672,94.5384146 L95.9114672,94.5571138 Z" id="Shape" fill="#FFFFFF" fill-rule="nonzero"></path>
                    <path d="M101.96188,98.3577236 C101.961305,98.0743913 101.983245,97.7914593 102.027493,97.5115854 L102.027493,97.5115854 C101.7704,98.0946626 101.184865,98.4643201 100.546524,98.4465447 C99.4311111,98.4465447 98.8734046,97.6237805 98.8734046,96.3148374 C98.8734046,94.7534553 99.7779202,93.7530488 101.249516,93.7530488 C101.469786,93.7530488 101.690057,93.7530488 101.933761,93.7857724 L101.933761,91.700813 L102.903889,91.700813 L102.903889,98.3530488 L101.96188,98.3577236 Z M101.915014,94.6178862 C101.678431,94.5625216 101.436283,94.5342899 101.193276,94.5337398 C100.415299,94.5337398 99.8857123,95.0012195 99.8857123,96.2306911 C99.8857123,97.1422764 100.171595,97.6331301 100.790228,97.6331301 C101.511966,97.6331301 101.915014,96.7776423 101.915014,96.001626 L101.915014,94.6178862 Z" id="Shape" fill="#FFFFFF" fill-rule="nonzero"></path>
                    <path d="M104.895698,93.1359756 C104.664411,93.1561902 104.441477,93.044535 104.319583,92.8474323 C104.197689,92.6503296 104.197689,92.4014996 104.319583,92.2043969 C104.441477,92.0072942 104.664411,91.8956391 104.895698,91.9158537 C105.058901,91.9133489 105.216288,91.9762692 105.332581,92.0905121 C105.448875,92.204755 105.51435,92.3607658 105.51433,92.5235772 C105.511756,92.8625503 105.235537,93.1359853 104.895698,93.1359756 Z M104.398917,98.3390244 L104.398917,93.8091463 L105.378419,93.8091463 L105.378419,98.3390244 L104.398917,98.3390244 Z" id="Shape" fill="#FFFFFF" fill-rule="nonzero"></path>
                    <path d="M108.935556,98.3577236 L107.956054,98.3577236 L106.254815,93.8278455 L107.337422,93.8278455 L108.185698,96.2260163 C108.29349,96.5345528 108.396595,96.8571138 108.476268,97.1609756 L108.476268,97.1609756 C108.551254,96.8804878 108.640299,96.5579268 108.743405,96.2680894 L109.610427,93.8325203 L110.660228,93.8325203 L108.935556,98.3577236 Z" id="Path" fill="#FFFFFF" fill-rule="nonzero"></path>
                    <path d="M114.892236,96.1558943 L111.995912,96.1558943 C111.967792,97.2030488 112.431766,97.6752033 113.336282,97.6752033 C113.794319,97.6765341 114.247069,97.5775951 114.662593,97.3853659 L114.756325,98.1567073 C114.255435,98.3554553 113.720672,98.4554707 113.181624,98.4512195 C111.775641,98.4512195 110.988291,97.7219512 110.988291,96.1138211 C110.988291,94.7441057 111.738148,93.725 113.064459,93.725 C114.390769,93.725 114.939103,94.6085366 114.939103,95.6837398 C114.931829,95.8418382 114.916185,95.9994428 114.892236,96.1558943 L114.892236,96.1558943 Z M113.017593,94.4589431 C112.463726,94.4713072 112.01768,94.9162287 112.005285,95.4686992 L113.931481,95.4686992 C113.969033,95.2101051 113.889909,94.9481938 113.715372,94.7533497 C113.540836,94.5585056 113.288789,94.4507143 113.026966,94.4589431 L113.017593,94.4589431 Z" id="Shape" fill="#FFFFFF" fill-rule="nonzero"></path>
                    <path d="M118.435313,94.6926829 C117.530798,94.529065 117.094943,95.1601626 117.094943,96.5158537 L117.094943,98.3577236 L116.115442,98.3577236 L116.115442,93.8278455 L117.052764,93.8278455 C117.049588,94.1646853 117.019814,94.500752 116.963718,94.8329268 L116.963718,94.8329268 C117.116879,94.1399932 117.764778,93.6703471 118.472806,93.7390244 L118.435313,94.6926829 Z" id="Path" fill="#FFFFFF" fill-rule="nonzero"></path>
                    <path d="M120.202165,98.4512195 C119.87967,98.45043 119.557977,98.4191244 119.24141,98.3577236 L119.26953,97.5302846 C119.591194,97.6223959 119.923773,97.6711351 120.258405,97.6752033 C120.787991,97.6752033 121.153547,97.4461382 121.153547,97.0721545 C121.153547,96.1605691 119.161738,96.7075203 119.161738,95.1414634 C119.161738,94.3560976 119.799117,93.7390244 121.036382,93.7390244 C121.322246,93.7450605 121.607304,93.7716197 121.889345,93.8184959 L121.861225,94.6132114 C121.573537,94.5291146 121.275243,94.4866087 120.975456,94.4869919 C120.436496,94.4869919 120.169359,94.7020325 120.169359,95.0479675 C120.169359,95.9268293 122.179915,95.4780488 122.179915,96.9833333 C122.175228,97.8107724 121.415997,98.4512195 120.202165,98.4512195 Z" id="Path" fill="#FFFFFF" fill-rule="nonzero"></path>
                    <path d="M123.890527,93.1359756 C123.65924,93.1561902 123.436306,93.044535 123.314412,92.8474323 C123.192518,92.6503296 123.192518,92.4014996 123.314412,92.2043969 C123.436306,92.0072942 123.65924,91.8956391 123.890527,91.9158537 C124.053731,91.9133489 124.211117,91.9762692 124.327411,92.0905121 C124.443704,92.204755 124.509179,92.3607658 124.50916,92.5235772 C124.506585,92.8625503 124.230366,93.1359853 123.890527,93.1359756 Z M123.393746,98.3390244 L123.393746,93.8091463 L124.359188,93.8091463 L124.359188,98.3390244 L123.393746,98.3390244 Z" id="Shape" fill="#FFFFFF" fill-rule="nonzero"></path>
                    <path d="M127.339872,98.4418699 C126.369744,98.4418699 126.079174,98.0678862 126.079174,97.0394309 L126.079174,94.5851626 L125.207464,94.5851626 L125.207464,93.8278455 L126.079174,93.8278455 L126.079174,92.3880081 L127.044615,92.1262195 L127.044615,93.8278455 L128.244387,93.8278455 L128.244387,94.5851626 L127.053989,94.5851626 L127.053989,96.7542683 C127.053989,97.427439 127.1899,97.6097561 127.649188,97.6097561 C127.849741,97.6111879 128.049688,97.5876316 128.244387,97.5396341 L128.244387,98.3390244 C127.946986,98.4027698 127.644026,98.4372171 127.339872,98.4418699 L127.339872,98.4418699 Z" id="Path" fill="#FFFFFF" fill-rule="nonzero"></path>
                    <path d="M131.211011,98.7971545 C130.681425,100.199593 130.236197,100.667073 129.209829,100.667073 C129.00517,100.663786 128.801238,100.64188 128.60057,100.601626 L128.670869,99.7461382 C128.861946,99.8134886 129.063427,99.8467205 129.266068,99.8443089 C129.734729,99.8443089 129.978433,99.6339431 130.264316,98.8626016 L130.447094,98.395122 L128.745855,93.8652439 L129.842521,93.8652439 L130.583006,95.9361789 C130.728291,96.3382114 130.836083,96.7355691 130.939188,97.1189024 L130.939188,97.1189024 C131.028234,96.7542683 131.220385,96.1839431 131.384416,95.7164634 L132.035855,93.8745935 L133.085655,93.8745935 L131.211011,98.7971545 Z" id="Path" fill="#FFFFFF" fill-rule="nonzero"></path>
                    <path d="M70.6553276,103.855285 C69.7414387,103.691667 69.2962108,104.322764 69.2962108,105.678455 L69.2962108,107.520325 L68.3120228,107.520325 L68.3120228,102.990447 L69.2493447,102.990447 C69.2464968,103.325959 69.2151404,103.660626 69.1556125,103.990854 L69.1556125,103.990854 C69.3091395,103.29404 69.9626554,102.823246 70.6740741,102.896951 L70.6553276,103.855285 Z" id="Path" fill="#FFFFFF" fill-rule="nonzero"></path>
                    <path d="M75.1497863,105.313821 L72.2300285,105.313821 C72.2019088,106.360976 72.6705698,106.837805 73.5844587,106.837805 C74.0457932,106.837079 74.5014865,106.736601 74.9201425,106.543293 L75.0138746,107.319309 C74.5077881,107.516537 73.9684239,107.614933 73.425114,107.609146 C72.0191311,107.609146 71.2130342,106.879878 71.2130342,105.271748 C71.2130342,103.906707 71.972265,102.882927 73.3079487,102.882927 C74.6436325,102.882927 75.1825926,103.766463 75.1825926,104.841667 C75.1802692,104.999529 75.1693176,105.157148 75.1497863,105.313821 Z M73.2751425,103.61687 C72.7178689,103.629139 72.2683234,104.075494 72.2534615,104.631301 L74.2124644,104.631301 C74.2511373,104.366388 74.1679618,104.098208 73.9860742,103.901357 C73.8041866,103.704507 73.542991,103.599986 73.2751425,103.61687 L73.2751425,103.61687 Z" id="Shape" fill="#FFFFFF" fill-rule="nonzero"></path>
                    <path d="M77.1415954,107.62787 C76.8161335,107.628851 76.4913075,107.599111 76.1714672,107.539024 L76.1995869,106.706911 C76.5237996,106.802583 76.8597512,106.852927 77.1978348,106.856504 C77.7321083,106.856504 78.0976638,106.627439 78.0976638,106.253455 C78.0976638,105.34187 76.0917949,105.888821 76.0917949,104.318089 C76.0917949,103.537398 76.7338604,102.91565 77.9664387,102.91565 C78.2541073,102.920958 78.540896,102.949096 78.8240883,102.999797 L78.7959687,103.789837 C78.5046617,103.707681 78.2035489,103.665223 77.9008262,103.663618 C77.3571795,103.663618 77.0900427,103.883333 77.0900427,104.229268 C77.0900427,105.103455 79.1193447,104.65935 79.1193447,106.159959 C79.1334046,106.992073 78.3648006,107.62787 77.1415954,107.62787 Z" id="Path" fill="#FFFFFF" fill-rule="nonzero"></path>
                    <path d="M83.9231197,105.313821 L81.0033618,105.313821 C80.9752422,106.360976 81.4439031,106.837805 82.357792,106.837805 C82.8191265,106.837079 83.2748199,106.736601 83.6934758,106.543293 L83.7825214,107.319309 C83.273487,107.525281 82.7290189,107.630089 82.1797009,107.627881 C80.7737179,107.627881 79.9676211,106.898577 79.9676211,105.290447 C79.9676211,103.925407 80.7268519,102.901626 82.0625356,102.901626 C83.3982194,102.901626 83.9371795,103.785163 83.9371795,104.860366 C83.9404163,105.011659 83.9357233,105.163017 83.9231197,105.313821 Z M82.0484758,103.61687 C81.4912022,103.629139 81.0416567,104.075494 81.0267949,104.631301 L82.9670513,104.631301 C83.0068941,104.368605 82.9261091,104.101971 82.7470741,103.905257 C82.5680391,103.708543 82.309763,103.602635 82.0437892,103.61687 L82.0484758,103.61687 Z" id="Shape" fill="#FFFFFF" fill-rule="nonzero"></path>
                    <path d="M87.6021083,107.520325 C87.5985893,107.239235 87.6126765,106.9582 87.6442877,106.678862 L87.6442877,106.678862 C87.3759373,107.269613 86.7755278,107.639302 86.1258262,107.613821 C85.7966398,107.656374 85.4652878,107.552943 85.2191431,107.330802 C84.9729983,107.108661 84.8367708,106.79011 84.8463818,106.459146 C84.8463818,105.416667 85.8961823,104.818293 87.5458689,104.818293 L87.5458689,104.52378 C87.5458689,103.95813 87.3068519,103.668293 86.585114,103.668293 C86.1068214,103.672162 85.6374231,103.797663 85.2213105,104.032927 L85.132265,103.205488 C85.6470226,103.0085 86.1931325,102.90557 86.7444587,102.901626 C88.1504416,102.901626 88.530057,103.504675 88.530057,104.434959 L88.530057,106.304878 C88.530057,106.697561 88.530057,107.160366 88.5581766,107.543699 L87.6021083,107.520325 Z M87.5364957,105.468089 C86.0977066,105.468089 85.7837037,105.898171 85.7837037,106.290854 C85.7808405,106.451896 85.8486842,106.606143 85.9694218,106.713095 C86.0901595,106.820047 86.2517292,106.86902 86.4117094,106.847154 C87.0746416,106.794853 87.5742367,106.223843 87.5364957,105.561585 L87.5364957,105.468089 Z" id="Shape" fill="#FFFFFF" fill-rule="nonzero"></path>
                    <path d="M92.4105698,103.855285 C91.4966809,103.691667 91.0561396,104.322764 91.0561396,105.678455 L91.0561396,107.520325 L90.0719516,107.520325 L90.0719516,102.990447 L91.0092735,102.990447 C91.0064255,103.325959 90.9750692,103.660626 90.9155413,103.990854 L90.9155413,103.990854 C91.06924,103.292088 91.7255793,102.820715 92.4386895,102.896951 L92.4105698,103.855285 Z" id="Path" fill="#FFFFFF" fill-rule="nonzero"></path>
                    <path d="M95.025698,107.590447 C93.849359,107.590447 92.9917094,107.020122 92.9917094,105.402642 C92.9917094,103.962805 93.7368803,102.915629 95.3115812,102.915629 C95.6490204,102.914487 95.9849842,102.960113 96.3098291,103.05122 L96.2067236,103.902033 C95.907317,103.788394 95.5897499,103.729792 95.2694017,103.729065 C94.4304986,103.729065 94.0087037,104.336789 94.0087037,105.295122 C94.0087037,106.127236 94.3133333,106.753659 95.2272222,106.753659 C95.5708525,106.756756 95.9106621,106.681611 96.2207835,106.533943 L96.3051425,107.366057 C95.8947546,107.513627 95.4619371,107.589535 95.025698,107.590447 Z" id="Path" fill="#FFFFFF" fill-rule="nonzero"></path>
                    <path d="M100.288761,107.520325 L100.288761,104.603252 C100.288761,104.037602 100.134103,103.710366 99.6092023,103.710366 C98.915584,103.710366 98.4094302,104.430285 98.4094302,105.34187 L98.4094302,107.520325 L97.4252422,107.520325 L97.4252422,100.863415 L98.4094302,100.863415 L98.4094302,102.91565 C98.4156745,103.221706 98.3873769,103.527492 98.3250712,103.827236 L98.3250712,103.827236 C98.6082606,103.229808 99.2239446,102.86096 99.8857123,102.892276 C100.92614,102.892276 101.249516,103.542073 101.249516,104.341463 L101.249516,107.51565 L100.288761,107.520325 Z" id="Path" fill="#FFFFFF" fill-rule="nonzero"></path>
                </g>
            </g>
        </g>
    </g>
</svg>